<svg width="50" height="50" viewBox="0 0 50 50" fill="none" xmlns="http://www.w3.org/2000/svg">
<rect width="50" height="50" rx="25" fill="#E5E5E5"/>
<path d="M18.9685 20.184C19.0805 18.728 19.6405 17.584 20.6485 16.752C21.6725 15.904 22.9925 15.48 24.6085 15.48C25.6805 15.48 26.6005 15.672 27.3685 16.056C28.1365 16.44 28.7125 16.968 29.0965 17.64C29.4965 18.296 29.6965 19.04 29.6965 19.872C29.6965 20.88 29.4005 21.752 28.8085 22.488C28.2165 23.224 27.3765 23.68 26.2885 23.856V23.976C27.4245 24.2 28.3285 24.696 29.0005 25.464C29.6725 26.216 30.0085 27.208 30.0085 28.44C30.0085 29.816 29.5445 30.944 28.6165 31.824C27.7045 32.688 26.3765 33.12 24.6325 33.12C22.9685 33.12 21.6005 32.688 20.5285 31.824C19.4565 30.944 18.8405 29.704 18.6805 28.104H20.3125C20.4565 29.176 20.9045 30.048 21.6565 30.72C22.4085 31.376 23.4005 31.704 24.6325 31.704C25.8485 31.704 26.7765 31.384 27.4165 30.744C28.0725 30.104 28.4005 29.288 28.4005 28.296C28.4005 25.864 26.6485 24.648 23.1445 24.648H22.6165V23.232H23.1685C26.4325 23.232 28.0645 22.168 28.0645 20.04C28.0645 19.112 27.7605 18.368 27.1525 17.808C26.5445 17.232 25.6805 16.944 24.5605 16.944C23.4725 16.944 22.5685 17.232 21.8485 17.808C21.1445 18.368 20.7285 19.16 20.6005 20.184H18.9685Z" fill="#898989"/>
</svg>
