<svg width="50" height="50" viewBox="0 0 50 50" fill="none" xmlns="http://www.w3.org/2000/svg">
<rect width="50" height="50" rx="25" fill="#E5E5E5"/>
<path d="M19.3568 31.68C22.3008 29.472 24.5728 27.496 26.1728 25.752C27.7888 23.992 28.5968 22.272 28.5968 20.592C28.5968 19.488 28.3168 18.608 27.7568 17.952C27.2128 17.28 26.3168 16.944 25.0688 16.944C23.8528 16.944 22.9088 17.328 22.2368 18.096C21.5808 18.848 21.2128 19.856 21.1328 21.12H19.5008C19.5968 19.344 20.1408 17.968 21.1328 16.992C22.1408 16 23.4528 15.504 25.0688 15.504C26.6208 15.504 27.8768 15.944 28.8368 16.824C29.7968 17.688 30.2768 18.92 30.2768 20.52C30.2768 22.456 29.4688 24.336 27.8528 26.16C26.2528 27.968 24.2768 29.736 21.9248 31.464H30.8048V32.88H19.3568V31.68Z" fill="#898989"/>
</svg>
