<svg width="140" height="26" viewBox="0 0 140 26" fill="none" xmlns="http://www.w3.org/2000/svg">
<path d="M137.391 19.422C136.854 19.422 136.403 19.24 136.039 18.876C135.675 18.512 135.493 18.0613 135.493 17.524C135.493 16.9866 135.675 16.536 136.039 16.172C136.403 15.808 136.854 15.626 137.391 15.626C137.911 15.626 138.353 15.808 138.717 16.172C139.081 16.536 139.263 16.9866 139.263 17.524C139.263 18.0613 139.081 18.512 138.717 18.876C138.353 19.24 137.911 19.422 137.391 19.422Z" fill="#152C5B"/>
<path d="M133.959 4.91394L125.171 25.9739H122.103L125.015 19.0059L119.373 4.91394H122.675L126.705 15.8339L130.891 4.91394H133.959Z" fill="#152C5B"/>
<path d="M102.454 12.0121C102.454 10.5734 102.748 9.29939 103.338 8.19005C103.944 7.08072 104.759 6.22272 105.782 5.61605C106.822 4.99205 107.966 4.68005 109.214 4.68005C110.34 4.68005 111.32 4.90539 112.152 5.35605C113.001 5.78939 113.677 6.33539 114.18 6.99405V4.91405H117.17V19.2401H114.18V17.1081C113.677 17.7841 112.992 18.3474 112.126 18.7981C111.259 19.2487 110.271 19.4741 109.162 19.4741C107.931 19.4741 106.804 19.1621 105.782 18.5381C104.759 17.8967 103.944 17.0127 103.338 15.8861C102.748 14.7421 102.454 13.4507 102.454 12.0121ZM114.18 12.0641C114.18 11.0761 113.972 10.2181 113.556 9.49005C113.157 8.76205 112.628 8.20739 111.97 7.82605C111.311 7.44472 110.6 7.25405 109.838 7.25405C109.075 7.25405 108.364 7.44472 107.706 7.82605C107.047 8.19005 106.51 8.73605 106.094 9.46405C105.695 10.1747 105.496 11.0241 105.496 12.0121C105.496 13.0001 105.695 13.8667 106.094 14.6121C106.51 15.3574 107.047 15.9294 107.706 16.3281C108.382 16.7094 109.092 16.9001 109.838 16.9001C110.6 16.9001 111.311 16.7094 111.97 16.3281C112.628 15.9467 113.157 15.3921 113.556 14.6641C113.972 13.9187 114.18 13.0521 114.18 12.0641Z" fill="#152C5B"/>
<path d="M97.2254 7.33205V15.2621C97.2254 15.7994 97.3467 16.1894 97.5894 16.4321C97.8494 16.6574 98.2827 16.7701 98.8894 16.7701H100.709V19.2401H98.3694C97.0347 19.2401 96.0121 18.9281 95.3014 18.3041C94.5907 17.68 94.2354 16.6661 94.2354 15.2621V7.33205H92.5454V4.91405H94.2354V1.35205H97.2254V4.91405H100.709V7.33205H97.2254Z" fill="#152C5B"/>
<path d="M84.0303 19.422C82.8169 19.422 81.7249 19.214 80.7543 18.798C79.7836 18.3647 79.0209 17.758 78.4663 16.978C77.9116 16.198 77.6343 15.288 77.6343 14.248H80.8063C80.8756 15.028 81.1789 15.6694 81.7163 16.172C82.2709 16.6747 83.0423 16.926 84.0303 16.926C85.0529 16.926 85.8503 16.6834 86.4223 16.198C86.9943 15.6954 87.2803 15.054 87.2803 14.274C87.2803 13.6674 87.0983 13.1734 86.7343 12.792C86.3876 12.4107 85.9456 12.116 85.4083 11.908C84.8883 11.7 84.1603 11.4747 83.2243 11.232C82.0456 10.92 81.0836 10.608 80.3383 10.296C79.6103 9.9667 78.9863 9.46404 78.4663 8.78804C77.9463 8.11204 77.6863 7.2107 77.6863 6.08404C77.6863 5.04404 77.9463 4.13404 78.4663 3.35404C78.9863 2.57404 79.7143 1.97604 80.6503 1.56004C81.5863 1.14404 82.6696 0.936035 83.9003 0.936035C85.6509 0.936035 87.0809 1.37804 88.1903 2.26204C89.3169 3.1287 89.9409 4.3247 90.0623 5.85004H86.7863C86.7343 5.19137 86.4223 4.62804 85.8503 4.16004C85.2783 3.69204 84.5243 3.45804 83.5883 3.45804C82.7389 3.45804 82.0456 3.6747 81.5083 4.10804C80.9709 4.54137 80.7023 5.16537 80.7023 5.98004C80.7023 6.5347 80.8669 6.99404 81.1963 7.35804C81.5429 7.7047 81.9763 7.98204 82.4963 8.19004C83.0163 8.39804 83.7269 8.62337 84.6283 8.86604C85.8243 9.19537 86.7949 9.5247 87.5403 9.85404C88.3029 10.1834 88.9443 10.6947 89.4643 11.388C90.0016 12.064 90.2703 12.974 90.2703 14.118C90.2703 15.0367 90.0189 15.9034 89.5163 16.718C89.0309 17.5327 88.3116 18.1914 87.3583 18.694C86.4223 19.1794 85.3129 19.422 84.0303 19.422Z" fill="#152C5B"/>
<path d="M59.4673 12.0121C59.4673 10.5734 59.762 9.29939 60.3513 8.19005C60.958 7.08072 61.7726 6.22272 62.7953 5.61605C63.8353 4.99205 64.9793 4.68005 66.2273 4.68005C67.354 4.68005 68.3333 4.90539 69.1653 5.35605C70.0146 5.78939 70.6906 6.33539 71.1933 6.99405V4.91405H74.1833V19.2401H71.1933V17.1081C70.6906 17.7841 70.006 18.3474 69.1393 18.7981C68.2726 19.2487 67.2846 19.4741 66.1753 19.4741C64.9446 19.4741 63.818 19.1621 62.7953 18.5381C61.7726 17.8967 60.958 17.0127 60.3513 15.8861C59.762 14.7421 59.4673 13.4507 59.4673 12.0121ZM71.1933 12.0641C71.1933 11.0761 70.9853 10.2181 70.5693 9.49005C70.1706 8.76205 69.642 8.20739 68.9833 7.82605C68.3246 7.44472 67.614 7.25405 66.8513 7.25405C66.0886 7.25405 65.3779 7.44472 64.7193 7.82605C64.0606 8.19005 63.5233 8.73605 63.1073 9.46405C62.7086 10.1747 62.5093 11.0241 62.5093 12.0121C62.5093 13.0001 62.7086 13.8667 63.1073 14.6121C63.5233 15.3574 64.0606 15.9294 64.7193 16.3281C65.3953 16.7094 66.106 16.9001 66.8513 16.9001C67.614 16.9001 68.3246 16.7094 68.9833 16.3281C69.642 15.9467 70.1706 15.3921 70.5693 14.6641C70.9853 13.9187 71.1933 13.0521 71.1933 12.0641Z" fill="#3252DF"/>
<path d="M51.7266 12.09L58.3306 19.24H54.3266L49.0226 13.078V19.24H46.0586V0H49.0226V11.18L54.2226 4.914H58.3306L51.7266 12.09Z" fill="#3252DF"/>
<path d="M36.4018 4.68005C37.5285 4.68005 38.5338 4.91405 39.4178 5.38205C40.3192 5.85005 41.0212 6.54339 41.5238 7.46205C42.0265 8.38072 42.2778 9.49005 42.2778 10.7901V19.2401H39.3398V11.2321C39.3398 9.94939 39.0192 8.97005 38.3778 8.29405C37.7365 7.60072 36.8612 7.25405 35.7518 7.25405C34.6425 7.25405 33.7585 7.60072 33.0998 8.29405C32.4585 8.97005 32.1378 9.94939 32.1378 11.2321V19.2401H29.1738V4.91405H32.1378V6.55205C32.6232 5.96272 33.2385 5.50339 33.9838 5.17405C34.7465 4.84472 35.5525 4.68005 36.4018 4.68005Z" fill="#3252DF"/>
<path d="M10.5649 12.0121C10.5649 10.5734 10.8596 9.29939 11.4489 8.19005C12.0556 7.08072 12.8703 6.22272 13.8929 5.61605C14.9329 4.99205 16.0769 4.68005 17.3249 4.68005C18.4516 4.68005 19.4309 4.90539 20.2629 5.35605C21.1123 5.78939 21.7883 6.33539 22.2909 6.99405V4.91405H25.2809V19.2401H22.2909V17.1081C21.7883 17.7841 21.1036 18.3474 20.2369 18.7981C19.3703 19.2487 18.3823 19.4741 17.2729 19.4741C16.0423 19.4741 14.9156 19.1621 13.8929 18.5381C12.8703 17.8967 12.0556 17.0127 11.4489 15.8861C10.8596 14.7421 10.5649 13.4507 10.5649 12.0121ZM22.2909 12.0641C22.2909 11.0761 22.0829 10.2181 21.6669 9.49005C21.2683 8.76205 20.7396 8.20739 20.0809 7.82605C19.4223 7.44472 18.7116 7.25405 17.9489 7.25405C17.1863 7.25405 16.4756 7.44472 15.8169 7.82605C15.1583 8.19005 14.6209 8.73605 14.2049 9.46405C13.8063 10.1747 13.6069 11.0241 13.6069 12.0121C13.6069 13.0001 13.8063 13.8667 14.2049 14.6121C14.6209 15.3574 15.1583 15.9294 15.8169 16.3281C16.4929 16.7094 17.2036 16.9001 17.9489 16.9001C18.7116 16.9001 19.4223 16.7094 20.0809 16.3281C20.7396 15.9467 21.2683 15.3921 21.6669 14.6641C22.0829 13.9187 22.2909 13.0521 22.2909 12.0641Z" fill="#3252DF"/>
<path d="M2.964 16.848H9.074V19.24H0V1.17004H2.964V16.848Z" fill="#3252DF"/>
</svg>
