<svg width="85" height="85" viewBox="0 0 85 85" fill="none" xmlns="http://www.w3.org/2000/svg">
<path d="M36.1476 61.3668L65.7802 31.7342L59.8957 25.8497L36.1476 49.5978L24.1684 37.6187L18.2839 43.5032L36.1476 61.3668ZM42.0321 84.0641C36.2176 84.0641 30.7535 82.9608 25.6396 80.7541C20.5257 78.5474 16.0773 75.5526 12.2944 71.7697C8.51149 67.9869 5.51671 63.5385 3.31002 58.4246C1.10334 53.3107 0 47.8465 0 42.0321C0 36.2176 1.10334 30.7535 3.31002 25.6396C5.51671 20.5257 8.51149 16.0773 12.2944 12.2944C16.0773 8.51149 20.5257 5.51671 25.6396 3.31002C30.7535 1.10334 36.2176 0 42.0321 0C47.8465 0 53.3107 1.10334 58.4246 3.31002C63.5385 5.51671 67.9869 8.51149 71.7697 12.2944C75.5526 16.0773 78.5474 20.5257 80.7541 25.6396C82.9608 30.7535 84.0641 36.2176 84.0641 42.0321C84.0641 47.8465 82.9608 53.3107 80.7541 58.4246C78.5474 63.5385 75.5526 67.9869 71.7697 71.7697C67.9869 75.5526 63.5385 78.5474 58.4246 80.7541C53.3107 82.9608 47.8465 84.0641 42.0321 84.0641ZM42.0321 75.6577C51.4192 75.6577 59.3703 72.4002 65.8853 65.8853C72.4002 59.3703 75.6577 51.4192 75.6577 42.0321C75.6577 32.6449 72.4002 24.6938 65.8853 18.1789C59.3703 11.6639 51.4192 8.40641 42.0321 8.40641C32.6449 8.40641 24.6938 11.6639 18.1789 18.1789C11.6639 24.6938 8.40641 32.6449 8.40641 42.0321C8.40641 51.4192 11.6639 59.3703 18.1789 65.8853C24.6938 72.4002 32.6449 75.6577 42.0321 75.6577Z" fill="#43D649"/>
</svg>
