<svg width="18" height="21" viewBox="0 0 18 21" fill="none" xmlns="http://www.w3.org/2000/svg">
<path d="M17.987 4.49062C17.989 6.42062 16.4206 7.99225 14.4906 7.99425C12.5606 7.99625 10.989 6.42788 10.987 4.49788C10.985 2.56788 12.5534 0.996251 14.4834 0.994251C16.4134 0.99225 17.985 2.56062 17.987 4.49062ZM15.9925 9.78269C15.4926 9.91321 14.9927 9.99373 14.4927 9.99425C13.0348 9.99311 11.6368 9.41425 10.6049 8.38444C9.57293 7.35463 8.99118 5.95783 8.98702 4.49995C8.9855 3.02995 9.56412 1.69935 10.4831 0.708397C10.3014 0.486126 10.0724 0.307193 9.81276 0.184636C9.55314 0.062079 9.26945 -0.00101463 8.98236 -4.7257e-05C7.88236 0.00109306 6.98329 0.902026 6.98443 2.00202L6.98473 2.29202C4.01564 3.1751 1.98848 5.90721 1.99169 9.0072L1.99791 15.0072L-1.60977e-05 17.0093L0.00102055 18.0093L18.001 17.9906L18 16.9906L15.9979 14.9927L15.9925 9.78269ZM9.00413 20.9999C10.1141 20.9988 11.0032 20.1079 11.0021 18.9979L7.00205 19.002C7.0026 19.5324 7.21384 20.0409 7.58931 20.4156C7.96477 20.7903 8.47369 21.0005 9.00413 20.9999Z" fill="#757575"/>
</svg>
