<svg width="18" height="18" viewBox="0 0 18 18" fill="none" xmlns="http://www.w3.org/2000/svg">
<g clip-path="url(#clip0_0_728)">
<path d="M6.77344 -0.0229492C6.4248 -0.0229492 6.14062 0.257964 6.14062 0.60259V2.73406C4.10156 2.96284 2.69531 3.4262 2.69531 3.96196V4.98136C2.69531 5.18987 2.9209 5.38101 3.30469 5.56056C4.30957 6.02682 6.4834 6.34828 9 6.34828C11.5195 6.34828 13.6875 6.02682 14.6953 5.56056C15.0762 5.38101 15.3047 5.18987 15.3047 4.98136V3.96196C15.3047 3.40883 13.7842 2.92809 11.625 2.71089V0.60259C11.625 0.257964 11.3408 -0.0229492 10.9922 -0.0229492H6.77344ZM7.40625 1.11229H10.3828C10.4473 1.11229 10.4766 1.41058 10.4766 1.78416V2.61821C9.99902 2.59505 9.51562 2.57188 9 2.57188C8.4668 2.57188 7.94531 2.59215 7.45312 2.61821L7.28906 2.64138V1.78416C7.28906 1.41058 7.34473 1.11229 7.40625 1.11229ZM3.58594 7.06649C3.51855 7.136 3.4834 7.19971 3.46875 7.275V7.32134C3.46875 7.33292 3.46582 7.35899 3.46875 7.36768L3.89062 16.0789C3.92871 16.7623 4.72852 17.7933 9 17.7933C13.2715 17.7933 14.0713 16.7623 14.1094 16.0789L14.5312 7.36768C14.5312 7.35609 14.5312 7.33292 14.5312 7.32134V7.275C14.5195 7.19971 14.4814 7.136 14.4141 7.06649C13.8633 7.61963 11.6455 7.69203 9 7.69203C6.35449 7.69203 4.13965 7.61963 3.58594 7.06649Z" fill="#4A85F6"/>
</g>
<defs>
<clipPath id="clip0_0_728">
<rect width="18" height="17.7931" fill="white"/>
</clipPath>
</defs>
</svg>
