<svg width="17" height="17" viewBox="0 0 17 17" fill="none" xmlns="http://www.w3.org/2000/svg">
<path d="M11.9974 0.743896L2.74481 9.89015L0.760925 16.0524L6.99481 14.0913L16.2474 4.94505C16.2474 4.94505 16.1766 3.47394 14.8308 2.14428C13.4849 0.813916 11.9974 0.743896 11.9974 0.743896ZM12.263 1.88171C13.0224 2.02455 13.6269 2.34251 14.0934 2.81575C14.5598 3.28899 14.8881 3.91751 15.0964 4.68247L13.8125 5.95157L10.9792 3.1508L11.9974 2.14428L12.263 1.88171ZM3.52647 10.5917C3.53484 10.5938 4.3782 10.8046 5.22398 11.6406C6.14481 12.4809 6.28648 13.2516 6.28648 13.2516L6.31692 13.2872L3.80316 14.0872L2.74343 13.0396L3.52647 10.5917Z" fill="#4A85F6"/>
</svg>
