<svg width="24" height="24" viewBox="0 0 24 24" fill="none" xmlns="http://www.w3.org/2000/svg">
<g clip-path="url(#clip0_6_194)">
<path d="M21.3332 8.81333V20H2.66651V5.33333H4.66651V4H2.49985C2.344 4.0026 2.1902 4.03588 2.04722 4.09794C1.90425 4.15999 1.77489 4.24961 1.66655 4.36166C1.55821 4.47371 1.47301 4.60601 1.41581 4.751C1.35861 4.89599 1.33053 5.05083 1.33318 5.20667V20.1267C1.33053 20.2825 1.35861 20.4373 1.41581 20.5823C1.47301 20.7273 1.55821 20.8596 1.66655 20.9717C1.77489 21.0837 1.90425 21.1733 2.04722 21.2354C2.1902 21.2974 2.344 21.3307 2.49985 21.3333H21.4998C21.6557 21.3307 21.8095 21.2974 21.9525 21.2354C22.0954 21.1733 22.2248 21.0837 22.3331 20.9717C22.4415 20.8596 22.5267 20.7273 22.5839 20.5823C22.6411 20.4373 22.6692 20.2825 22.6665 20.1267V8.22667C22.2533 8.48669 21.804 8.68437 21.3332 8.81333Z" fill="#1E1E1E"/>
<path d="M5.3335 9.33337H6.66683V10.6667H5.3335V9.33337Z" fill="#1E1E1E"/>
<path d="M9.3335 9.33337H10.6668V10.6667H9.3335V9.33337Z" fill="#1E1E1E"/>
<path d="M13.3335 9.33337H14.6668V10.6667H13.3335V9.33337Z" fill="#1E1E1E"/>
<path d="M17.3335 9.33337H18.6668V10.6667H17.3335V9.33337Z" fill="#1E1E1E"/>
<path d="M5.3335 12.6666H6.66683V14H5.3335V12.6666Z" fill="#1E1E1E"/>
<path d="M9.3335 12.6666H10.6668V14H9.3335V12.6666Z" fill="#1E1E1E"/>
<path d="M13.3335 12.6666H14.6668V14H13.3335V12.6666Z" fill="#1E1E1E"/>
<path d="M17.3335 12.6666H18.6668V14H17.3335V12.6666Z" fill="#1E1E1E"/>
<path d="M5.3335 16H6.66683V17.3333H5.3335V16Z" fill="#1E1E1E"/>
<path d="M9.3335 16H10.6668V17.3333H9.3335V16Z" fill="#1E1E1E"/>
<path d="M13.3335 16H14.6668V17.3333H13.3335V16Z" fill="#1E1E1E"/>
<path d="M17.3335 16H18.6668V17.3333H17.3335V16Z" fill="#1E1E1E"/>
<path d="M6.66667 6.66671C6.84348 6.66671 7.01305 6.59647 7.13807 6.47144C7.2631 6.34642 7.33333 6.17685 7.33333 6.00004V2.00004C7.33333 1.82323 7.2631 1.65366 7.13807 1.52864C7.01305 1.40361 6.84348 1.33337 6.66667 1.33337C6.48986 1.33337 6.32029 1.40361 6.19526 1.52864C6.07024 1.65366 6 1.82323 6 2.00004V6.00004C6 6.17685 6.07024 6.34642 6.19526 6.47144C6.32029 6.59647 6.48986 6.66671 6.66667 6.66671Z" fill="#1E1E1E"/>
<path d="M14.9998 4H8.6665V5.33333H15.1865C15.0644 4.89935 15.0016 4.45083 14.9998 4Z" fill="#1E1E1E"/>
<path d="M19.9998 7.33329C21.8408 7.33329 23.3332 5.84091 23.3332 3.99996C23.3332 2.15901 21.8408 0.666626 19.9998 0.666626C18.1589 0.666626 16.6665 2.15901 16.6665 3.99996C16.6665 5.84091 18.1589 7.33329 19.9998 7.33329Z" fill="#1E1E1E"/>
</g>
<defs>
<clipPath id="clip0_6_194">
<rect width="24" height="24" fill="white"/>
</clipPath>
</defs>
</svg>
