<svg width="24" height="24" viewBox="0 0 24 24" fill="none" xmlns="http://www.w3.org/2000/svg">
<g clip-path="url(#clip0_6_215)">
<path d="M12.2423 9.6C9.53148 9.55804 7.46068 7.37884 7.44234 4.8C7.48712 2.11334 9.68306 0.01884 12.2423 0C14.9556 0.1026 17.023 2.1794 17.0423 4.8C16.989 7.48878 14.8042 9.5818 12.2423 9.6ZM16.1232 10.5958C19.535 10.6356 21.2651 13.6284 21.2808 16.6211V24H17.9361L17.9361 17.5149C17.8547 17.0666 17.551 16.9146 17.2728 16.9585C17.0124 16.9997 16.7742 17.2125 16.7616 17.5149V24H7.46822V17.5149C7.39708 17.0882 7.12566 16.9242 6.8616 16.9407C6.57884 16.9585 6.30454 17.1834 6.29374 17.5149V24H3.00014V16.6211C2.98054 13.4316 4.99816 10.6194 8.18288 10.5958H16.1232Z" fill="black"/>
</g>
<defs>
<clipPath id="clip0_6_215">
<rect width="24" height="24" fill="white"/>
</clipPath>
</defs>
</svg>
