<svg width="13" height="13" viewBox="0 0 13 13" fill="none" xmlns="http://www.w3.org/2000/svg">
<path d="M4.99455 -5.60214e-05C5.92654 -0.00105967 6.84025 0.25844 7.63259 0.749158C8.42492 1.23988 9.06433 1.94228 9.47866 2.7771C9.89299 3.61192 10.0658 4.54593 9.97744 5.47372C9.88913 6.40151 9.54326 7.28616 8.97888 8.02782L12.1442 11.1879C12.2638 11.3077 12.3334 11.4686 12.3388 11.6379C12.3441 11.8072 12.2848 11.9722 12.1729 12.0994C12.061 12.2265 11.9049 12.3063 11.7363 12.3226C11.5677 12.3388 11.3993 12.2903 11.2652 12.1868L11.2025 12.1315L8.03586 8.97279C7.40502 9.45485 6.66847 9.77975 5.88713 9.92061C5.1058 10.0615 4.30215 10.0143 3.54269 9.78285C2.78324 9.55145 2.0898 9.14253 1.51976 8.58991C0.949722 8.0373 0.519474 7.35689 0.264617 6.60498C0.00975975 5.85306 -0.0623789 5.05127 0.0541699 4.26594C0.170719 3.48061 0.472604 2.73433 0.934846 2.08884C1.39709 1.44335 2.0064 0.917213 2.71236 0.553967C3.41831 0.190722 4.20062 0.000808905 4.99455 -5.60214e-05ZM4.99594 1.33328C4.02348 1.33428 3.09125 1.72156 2.40433 2.40991C1.71741 3.09825 1.33206 4.03128 1.33307 5.00374C1.33408 5.9762 1.72136 6.90843 2.4097 7.59535C3.09805 8.28227 4.03108 8.66761 5.00354 8.66661C5.976 8.6656 6.90823 8.27832 7.59515 7.58998C8.28207 6.90163 8.66741 5.9686 8.6664 4.99614C8.66539 4.02368 8.27812 3.09145 7.58977 2.40453C6.90143 1.71761 5.9684 1.33227 4.99594 1.33328Z" fill="#404040"/>
</svg>
