<svg width="28" height="28" viewBox="0 0 28 28" fill="none" xmlns="http://www.w3.org/2000/svg">
<path d="M14.7613 2V3.65295C16.3962 3.65295 17.9278 4.06618 19.3562 4.89266C20.7158 5.70191 21.8 6.78666 22.6088 8.14689C23.4349 9.576 23.8479 11.1084 23.8479 12.7441H25.5C25.5 10.7985 25.0095 8.99058 24.0286 7.32042C23.0821 5.70191 21.8 4.41916 20.1823 3.47215C18.513 2.49072 16.706 2 14.7613 2ZM6.21682 4.47942C5.75217 4.47942 5.34774 4.62577 5.00356 4.91848L2.3447 7.63035L2.42214 7.57869C1.9919 7.94027 1.70795 8.38795 1.57027 8.92171C1.44981 9.45547 1.48422 9.97202 1.67353 10.4713C2.15539 11.8144 2.80075 13.1918 3.60959 14.6037C4.74541 16.5494 6.09635 18.297 7.66241 19.8467C10.175 22.3777 13.2985 24.375 17.033 25.8386H17.0588C17.5578 26.0108 18.0569 26.0452 18.556 25.9419C19.0723 25.8386 19.5283 25.6147 19.9241 25.2704L22.5314 22.6618C22.8756 22.3175 23.0477 21.8956 23.0477 21.3963C23.0477 20.8797 22.8756 20.4493 22.5314 20.1049L19.1497 16.6957C18.8055 16.3514 18.3753 16.1792 17.859 16.1792C17.3427 16.1792 16.9125 16.3514 16.5683 16.6957L14.942 18.3487C13.6341 17.7288 12.4983 16.9626 11.5345 16.05C10.5708 15.1203 9.80499 13.9925 9.23708 12.6667L10.8892 11.0137C11.2506 10.6349 11.4313 10.1872 11.4313 9.6707C11.4313 9.13694 11.2248 8.70648 10.8117 8.37934L10.8892 8.45682L7.43009 4.91848C7.0859 4.62577 6.68148 4.47942 6.21682 4.47942ZM14.7613 5.30589V6.95884C15.8111 6.95884 16.7748 7.21711 17.6525 7.73366C18.5474 8.2502 19.253 8.95615 19.7693 9.85149C20.2855 10.7296 20.5437 11.6938 20.5437 12.7441H22.1958C22.1958 11.4011 21.8602 10.1528 21.189 8.99919C20.5179 7.88001 19.623 6.98466 18.5044 6.31316C17.3513 5.64165 16.1036 5.30589 14.7613 5.30589ZM6.21682 6.13236C6.26845 6.13236 6.32868 6.15819 6.39752 6.20985L9.77918 9.6707C9.79638 9.73957 9.77918 9.79984 9.72755 9.85149L7.2752 12.2793L7.4559 12.7958L7.79148 13.519C8.06684 14.1044 8.38521 14.6726 8.74661 15.2236C9.24568 15.9984 9.79638 16.6613 10.3987 17.2123C11.2076 18.0043 12.1799 18.7275 13.3157 19.3818C13.8836 19.7089 14.3655 19.95 14.7613 20.1049L15.2776 20.3374L17.7816 17.8321C17.816 17.7977 17.8418 17.7805 17.859 17.7805C17.8762 17.7805 17.902 17.7977 17.9365 17.8321L21.4214 21.3188C21.4558 21.3532 21.473 21.3791 21.473 21.3963C21.473 21.3963 21.4558 21.4135 21.4214 21.4479L18.8399 24.0048C18.4613 24.332 18.0483 24.4181 17.6009 24.2631C14.0901 22.9029 11.1645 21.0433 8.82405 18.6844C7.37846 17.2381 6.11356 15.5938 5.02937 13.7514C4.25494 12.4256 3.65261 11.1429 3.22238 9.90315V9.87732C3.15354 9.72236 3.14494 9.54157 3.19656 9.33495C3.24819 9.11111 3.34284 8.93893 3.48052 8.8184L6.03612 6.20985C6.08775 6.15819 6.14798 6.13236 6.21682 6.13236ZM14.7613 8.61178V10.2647C15.4497 10.2647 16.0348 10.5058 16.5167 10.9879C16.9985 11.47 17.2395 12.0554 17.2395 12.7441H18.8916C18.8916 12.0038 18.7023 11.315 18.3237 10.678C17.9623 10.0409 17.4632 9.54157 16.8264 9.17998C16.1897 8.80118 15.5013 8.61178 14.7613 8.61178Z" fill="#152C5B"/>
</svg>
