<svg width="28" height="28" viewBox="0 0 28 28" fill="none" xmlns="http://www.w3.org/2000/svg">
<path d="M10.1667 2V6.8H8.25V4.88H2.5V22.16H4.41667V23.12C4.41667 23.9 4.69618 24.57 5.25521 25.13C5.8342 25.71 6.51302 26 7.29167 26C8.07031 26 8.73915 25.71 9.29818 25.13C9.87717 24.57 10.1667 23.9 10.1667 23.12V22.16H25.5V6.8H21.6667V2H10.1667ZM12.0833 3.92H19.75V8.72H12.0833V3.92ZM4.41667 6.8H6.33333V20.24H4.41667V6.8ZM8.25 8.72H10.1667V10.64H21.6667V8.72H23.5833V20.24H8.25V8.72ZM11.125 12.56V14.48H13.0417V12.56H11.125ZM14.9583 12.56V14.48H16.875V12.56H14.9583ZM18.7917 12.56V14.48H20.7083V12.56H18.7917ZM11.125 16.4V18.32H13.0417V16.4H11.125ZM14.9583 16.4V18.32H16.875V16.4H14.9583ZM18.7917 16.4V18.32H20.7083V16.4H18.7917ZM6.33333 22.16H8.25V23.12C8.25 23.38 8.15017 23.61 7.95052 23.81C7.77083 23.99 7.55122 24.08 7.29167 24.08C7.03212 24.08 6.80252 23.99 6.60286 23.81C6.42318 23.61 6.33333 23.38 6.33333 23.12V22.16Z" fill="#152C5B"/>
</svg>
